<svg width="1020" height="359" viewBox="0 0 1020 359" fill="none" xmlns="http://www.w3.org/2000/svg">
<path d="M477.89 157.524C475.034 157.539 472.186 157.221 469.404 156.577C466.87 155.994 464.403 155.152 462.041 154.064C460.043 153.204 458.204 152.015 456.601 150.545L460.208 143.981C461.768 145.355 463.509 146.509 465.382 147.411C469.548 149.469 474.131 150.541 478.777 150.545C481.511 150.591 484.236 150.202 486.849 149.392C488.931 148.807 490.813 147.661 492.289 146.081C493.581 144.626 494.269 142.733 494.211 140.788C494.243 140.014 494.114 139.242 493.835 138.52C493.555 137.797 493.129 137.14 492.585 136.589C491.383 135.423 489.954 134.517 488.386 133.928C486.642 133.248 484.749 132.627 482.65 132.036C480.551 131.445 478.451 130.824 476.352 130.084C474.341 129.39 472.416 128.467 470.616 127.335C468.924 126.259 467.499 124.813 466.447 123.106C465.314 121.131 464.761 118.877 464.85 116.601C464.734 113.203 465.777 109.867 467.807 107.14C469.978 104.359 472.873 102.231 476.175 100.989C480.125 99.4687 484.332 98.7258 488.564 98.8014C491.983 98.7863 495.391 99.2035 498.705 100.043C501.657 100.744 504.461 101.966 506.985 103.651L503.702 110.362C501.524 108.811 499.093 107.651 496.517 106.933C493.796 106.159 490.979 105.771 488.15 105.779C485.41 105.728 482.681 106.138 480.078 106.992C478.018 107.647 476.177 108.853 474.755 110.481C473.501 111.962 472.801 113.833 472.774 115.773C472.742 116.551 472.864 117.328 473.133 118.059C473.402 118.789 473.813 119.46 474.341 120.031C475.522 121.224 476.944 122.151 478.511 122.752C480.255 123.461 482.177 124.112 484.276 124.762C486.376 125.413 488.475 126.034 490.545 126.714C492.559 127.373 494.493 128.256 496.31 129.345C497.985 130.355 499.41 131.73 500.48 133.366C501.606 135.247 502.161 137.415 502.076 139.605C502.178 143.029 501.137 146.389 499.119 149.156C496.915 151.972 493.965 154.113 490.604 155.335C486.541 156.857 482.227 157.599 477.89 157.524Z" fill="#F0E9F4"/>
<path d="M511.006 119.913L512.248 113.438H539.983L538.652 119.913H511.006ZM524.844 157.376C522.473 157.432 520.131 156.839 518.073 155.661C516.213 154.524 514.803 152.779 514.081 150.723C513.269 148.291 513.136 145.684 513.697 143.183L521.562 103.798H529.427L521.562 142.917C521.122 144.811 521.362 146.8 522.242 148.535C522.785 149.273 523.515 149.854 524.357 150.218C525.199 150.581 526.122 150.715 527.032 150.605C528.147 150.601 529.255 150.422 530.314 150.072C531.374 149.732 532.373 149.223 533.271 148.564L534.897 154.478C533.43 155.508 531.771 156.232 530.018 156.607C528.326 157.048 526.591 157.306 524.844 157.376Z" fill="#F0E9F4"/>
<path d="M562.218 157.376C558.941 157.488 555.696 156.69 552.845 155.069C550.32 153.553 548.422 151.182 547.493 148.387C546.431 144.942 546.319 141.275 547.168 137.772L551.988 113.438H559.853L555.004 137.861C554.574 139.386 554.459 140.983 554.668 142.554C554.876 144.125 555.403 145.637 556.216 146.997C557.214 148.191 558.493 149.119 559.938 149.697C561.383 150.275 562.949 150.485 564.495 150.309C568.235 150.442 571.898 149.224 574.814 146.879C577.806 144.158 579.751 140.476 580.314 136.471L584.897 113.438H592.762L584.217 157.021H576.707L579.161 144.573L580.55 147.914C578.687 151.037 575.968 153.561 572.715 155.188C569.43 156.711 565.838 157.459 562.218 157.376Z" fill="#F0E9F4"/>
<path d="M618.25 157.376C614.845 157.423 611.478 156.653 608.433 155.128C605.593 153.669 603.224 151.434 601.603 148.683C599.874 145.61 599.015 142.124 599.119 138.6C599.09 135.09 599.733 131.608 601.012 128.34C602.163 125.32 603.913 122.564 606.156 120.238C608.361 117.941 611.019 116.128 613.962 114.916C617.054 113.634 620.373 112.99 623.72 113.023C627.012 112.924 630.281 113.592 633.27 114.975C635.853 116.272 637.971 118.338 639.332 120.889C640.829 123.759 641.562 126.967 641.461 130.202C641.497 133.946 640.968 137.674 639.894 141.261C638.954 144.42 637.385 147.357 635.281 149.895C633.291 152.296 630.784 154.216 627.948 155.513C624.895 156.851 621.581 157.487 618.25 157.376ZM619.965 150.486C623.016 150.559 626.026 149.765 628.643 148.194C631.26 146.624 633.378 144.343 634.749 141.616C636.244 138.689 636.995 135.44 636.937 132.154C637.018 130.523 636.76 128.893 636.18 127.366C635.6 125.839 634.71 124.449 633.566 123.284C632.264 122.145 630.75 121.274 629.112 120.721C627.473 120.168 625.741 119.944 624.016 120.061C620.966 119.998 617.961 120.797 615.346 122.366C612.73 123.935 610.611 126.211 609.232 128.931C607.707 131.88 606.945 135.163 607.014 138.482C606.94 140.109 607.198 141.735 607.772 143.26C608.346 144.785 609.225 146.178 610.355 147.352C611.671 148.482 613.198 149.341 614.847 149.879C616.496 150.417 618.235 150.623 619.965 150.486ZM632.472 157.021L634.778 145.785L637.321 135.702L638.445 125.383L644.358 96.1992H652.194L640.012 157.021H632.472Z" fill="#F0E9F4"/>
<path d="M654.974 157.021L663.578 113.585H671.414L662.839 157.021H654.974ZM669.758 105.217C669.102 105.244 668.449 105.135 667.838 104.896C667.227 104.656 666.672 104.293 666.21 103.828C665.769 103.385 665.422 102.859 665.188 102.28C664.955 101.701 664.84 101.081 664.85 100.457C664.833 99.7367 664.961 99.0205 665.225 98.3503C665.489 97.6801 665.884 97.0694 666.387 96.5539C666.925 96.0186 667.568 95.6004 668.275 95.3257C668.982 95.0509 669.739 94.9254 670.497 94.9572C671.813 94.9257 673.088 95.4144 674.045 96.3174C674.497 96.7292 674.857 97.2317 675.102 97.7922C675.347 98.3526 675.47 98.9584 675.465 99.5698C675.5 100.319 675.382 101.067 675.117 101.769C674.853 102.471 674.448 103.111 673.927 103.65C673.366 104.15 672.711 104.533 672 104.777C671.289 105.021 670.537 105.12 669.787 105.07L669.758 105.217Z" fill="#F0E9F4"/>
<path d="M698.083 157.375C694.362 157.454 690.674 156.654 687.32 155.039C684.394 153.56 681.944 151.285 680.253 148.475C678.517 145.479 677.637 142.062 677.711 138.6C677.629 134.001 678.761 129.463 680.993 125.442C683.13 121.644 686.257 118.497 690.04 116.335C694.043 114.081 698.576 112.938 703.169 113.023C706.868 112.944 710.534 113.734 713.872 115.33C716.809 116.739 719.266 118.981 720.939 121.775C722.675 124.793 723.544 128.23 723.452 131.71C723.534 136.308 722.402 140.847 720.17 144.868C718.067 148.639 715.007 151.79 711.3 154.005C707.287 156.321 702.715 157.487 698.083 157.375ZM698.586 150.486C701.706 150.551 704.782 149.731 707.456 148.12C709.972 146.505 712.013 144.25 713.37 141.586C714.854 138.657 715.596 135.407 715.528 132.124C715.613 130.495 715.36 128.866 714.785 127.34C714.21 125.813 713.325 124.422 712.187 123.254C709.543 120.958 706.1 119.8 702.607 120.031C699.56 119.979 696.559 120.782 693.945 122.35C691.332 123.918 689.211 126.188 687.823 128.901C686.308 131.852 685.555 135.136 685.635 138.452C685.55 140.081 685.803 141.71 686.378 143.236C686.953 144.763 687.837 146.154 688.976 147.322C690.29 148.457 691.815 149.322 693.465 149.865C695.114 150.408 696.854 150.619 698.586 150.486Z" fill="#F0E9F4"/>
<path d="M0.780175 88.127C0.788949 104.849 6.87643 120.997 17.9084 133.563C28.9404 146.129 44.1645 154.256 60.7442 156.429C63.6374 156.796 66.5504 156.983 69.4667 156.991H138.242V88.127C138.242 86.7078 138.242 85.3181 138.242 83.9579C137.689 65.7294 129.918 48.467 116.637 35.9684C103.357 23.4698 85.6551 16.7587 67.4266 17.3115C49.198 17.8644 31.9356 25.6359 19.437 38.9164C6.93838 52.1968 0.227319 69.8984 0.780175 88.127Z" fill="#816DA0"/>
<path d="M291.375 241.467C291.367 224.745 285.279 208.597 274.247 196.031C263.215 183.465 247.991 175.338 231.411 173.165C228.469 172.793 225.507 172.606 222.541 172.603H153.914V241.467C153.914 242.886 153.914 244.424 153.914 245.636C154.806 263.61 162.713 280.516 175.936 292.722C189.159 304.929 206.643 311.461 224.63 310.915C242.618 310.369 259.673 302.788 272.131 289.802C284.59 276.816 291.457 259.462 291.257 241.467H291.375Z" fill="#F81B5A"/>
<path d="M232.091 0.310059C212.156 0.356897 192.988 8.00069 178.491 21.6848C163.994 35.369 155.257 54.0645 154.061 73.9641C154.061 75.5016 153.914 77.0687 153.914 78.6654V157.021H232.091C252.873 157.021 272.803 148.765 287.497 134.071C302.192 119.376 310.447 99.4465 310.447 78.6654C310.447 57.8843 302.192 37.9543 287.497 23.2598C272.803 8.56533 252.873 0.310059 232.091 0.310059ZM239.602 132.804H238.951C236.677 133.099 234.385 133.248 232.091 133.248H177.568V78.6654C177.568 77.6305 177.568 76.6252 177.568 75.7086C178.156 65.3981 181.66 55.4667 187.673 47.0701C193.685 38.6735 201.958 32.1571 211.53 28.2793C221.101 24.4015 231.577 23.3218 241.739 25.1659C251.9 27.0099 261.329 31.7018 268.927 38.6956C276.526 45.6893 281.982 54.6973 284.661 64.6711C287.339 74.6449 287.13 85.1743 284.058 95.034C280.985 104.894 275.176 113.678 267.306 120.365C259.436 127.051 249.828 131.365 239.602 132.804Z" fill="url(#paint0_linear_18_7)"/>
<path d="M391.226 157.02C378.746 157.157 366.452 153.984 355.597 147.825C345.218 141.957 336.585 133.437 330.582 123.136C324.351 112.363 321.172 100.097 321.387 87.6538C321.205 75.3462 324.329 63.2153 330.434 52.527C336.378 42.1326 344.998 33.5207 355.398 27.5874C365.798 21.6542 377.598 18.6163 389.571 18.7899C400.974 18.5492 412.224 21.4437 422.095 27.1576C431.421 32.6913 439.027 40.7065 444.064 50.3094C449.464 60.6172 452.189 72.116 451.989 83.7509C451.989 85.6136 451.989 87.6243 451.723 89.6645C451.486 92.1475 451.111 94.6154 450.599 97.0565H338.92V76.3293H437.116L427.92 84.4014C428.156 76.568 426.545 68.7891 423.219 61.6931C420.244 55.6753 415.606 50.6368 409.854 47.1752C403.494 43.5918 396.276 41.8129 388.979 42.0304C381.107 41.8684 373.332 43.7967 366.448 47.6187C360.027 51.2479 354.806 56.6742 351.428 63.2306C347.771 70.5683 345.964 78.689 346.165 86.8851C345.965 95.3516 347.875 103.735 351.723 111.279C355.289 118.12 360.805 123.749 367.572 127.452C374.831 131.369 382.979 133.345 391.226 133.189C398.269 133.281 405.258 131.954 411.776 129.286C417.975 126.675 423.459 122.619 427.772 117.458L443.917 133.898C437.639 141.404 429.662 147.303 420.647 151.107C411.346 155.063 401.334 157.076 391.226 157.02Z" fill="#F0E9F4"/>
<path d="M360.741 310.479C352.811 310.519 344.909 309.525 337.235 307.522C329.738 305.525 322.54 302.542 315.828 298.652C309.583 295.111 303.911 290.645 299.003 285.405L323.072 260.893C327.518 265.705 332.914 269.542 338.92 272.159C345.236 274.894 352.056 276.274 358.938 276.21C362.915 276.427 366.884 275.665 370.499 273.992C371.681 273.451 372.686 272.586 373.398 271.498C374.11 270.41 374.499 269.142 374.52 267.842C374.534 266.231 374.081 264.65 373.215 263.291C372.349 261.931 371.108 260.852 369.641 260.184C365.714 258.145 361.567 256.558 357.282 255.453C352.295 254.053 347.012 252.516 341.434 250.84C335.886 249.182 330.563 246.848 325.585 243.892C320.527 240.845 316.318 236.574 313.344 231.473C309.965 225.295 308.329 218.314 308.613 211.278C308.416 203.197 310.753 195.257 315.295 188.57C320.077 181.871 326.615 176.622 334.189 173.402C343.227 169.499 353 167.593 362.841 167.813C373.741 167.676 384.561 169.686 394.686 173.727C403.991 177.461 412.15 183.58 418.34 191.468L394.39 216.157C390.57 211.485 385.639 207.846 380.049 205.572C375.133 203.636 369.899 202.633 364.615 202.615C360.891 202.381 357.168 203.093 353.793 204.685C352.697 205.235 351.776 206.079 351.133 207.124C350.491 208.169 350.152 209.372 350.156 210.598C350.217 212.049 350.696 213.452 351.536 214.637C352.375 215.823 353.539 216.741 354.887 217.281C358.783 219.233 362.89 220.731 367.128 221.745C372.115 223.046 377.398 224.623 382.977 226.476C388.539 228.304 393.86 230.795 398.825 233.898C403.859 237.076 408.057 241.416 411.066 246.553C414.457 252.908 416.09 260.053 415.797 267.251C416.018 273.297 414.792 279.31 412.221 284.787C409.649 290.264 405.807 295.048 401.013 298.741C391.019 306.566 377.595 310.479 360.741 310.479Z" fill="#F0E9F4"/>
<path d="M525.939 172.603V186.293C522.298 182.799 518.126 179.905 513.579 177.718C506.063 174.189 497.844 172.41 489.54 172.514C478.071 172.282 466.779 175.361 457.016 181.385C447.434 187.407 439.635 195.879 434.426 205.926C428.763 216.883 425.918 229.077 426.147 241.408C425.919 253.739 428.764 265.933 434.426 276.89C439.644 286.922 447.441 295.383 457.016 301.401C466.778 307.426 478.071 310.506 489.54 310.272C497.889 310.387 506.156 308.619 513.727 305.097C518.224 303.013 522.349 300.206 525.939 296.789V310.272H566.772V172.603H525.939ZM519.434 264.027C516.705 266.972 513.37 269.29 509.659 270.822C505.948 272.353 501.949 273.061 497.938 272.898C492.639 272.969 487.423 271.573 482.868 268.864C478.312 266.156 474.594 262.241 472.125 257.552C469.526 252.595 468.215 247.064 468.311 241.467C468.189 235.769 469.543 230.136 472.243 225.116C474.735 220.549 478.412 216.739 482.888 214.087C487.585 211.488 492.865 210.125 498.234 210.125C503.602 210.125 508.882 211.488 513.579 214.087C518.016 216.694 521.608 220.523 523.928 225.116C526.457 230.189 527.715 235.8 527.595 241.467C527.926 249.764 524.997 257.862 519.434 264.027Z" fill="#F0E9F4"/>
<path d="M719.461 172.633L663.489 304.24L640.337 359H598.084L627.83 294.689L577.919 172.633H622.301L648.38 252.23L675.05 172.633H719.461Z" fill="#F0E9F4"/>
<path d="M971.143 226.683V310.597H946.188V231.769C946.496 222.414 943.095 213.317 936.726 206.458C933.591 203.175 929.797 200.592 925.593 198.88C921.388 197.168 916.869 196.365 912.333 196.524C906.116 196.411 899.986 197.985 894.592 201.077C889.456 204.054 885.233 208.379 882.38 213.584C879.356 219.161 877.828 225.426 877.945 231.769V310.597H852.93V172.603H877.915V192.887C881.977 187.498 887.074 182.975 892.906 179.581C901.083 174.874 910.38 172.463 919.813 172.603C929.254 172.41 938.531 175.08 946.425 180.261C954.036 185.37 960.271 192.276 964.579 200.367C968.955 208.444 971.213 217.498 971.143 226.683Z" fill="#F0E9F4"/>
<path d="M1002.99 310.597C1011.97 310.597 1019.25 303.289 1019.25 294.275C1019.25 285.261 1011.97 277.954 1002.99 277.954C994.007 277.954 986.726 285.261 986.726 294.275C986.726 303.289 994.007 310.597 1002.99 310.597Z" fill="#F0E9F4"/>
<path d="M815.114 172.603V192.177C810.833 186.432 805.29 181.748 798.911 178.487C790.748 174.443 781.734 172.415 772.625 172.573C761.715 172.42 750.984 175.352 741.667 181.03C732.581 186.629 725.12 194.509 720.023 203.886C714.611 213.861 711.861 225.063 712.04 236.411C711.859 247.9 714.607 259.246 720.023 269.379C725.05 278.83 732.526 286.754 741.667 292.324C750.968 297.929 761.648 300.827 772.507 300.692C781.53 300.848 790.457 298.819 798.526 294.778C805.019 291.472 810.657 286.705 814.996 280.852V297.764C815.224 302.942 814.333 308.107 812.384 312.908C810.435 317.71 807.473 322.035 803.701 325.588C796.171 332.448 785.95 335.888 773.039 335.907C764.338 336.12 755.707 334.318 747.817 330.644C740.596 327.092 734.307 321.897 729.455 315.476L714.08 331.295C720.116 340.126 728.406 347.18 738.089 351.726C748.86 356.731 760.632 359.208 772.507 358.97C784.521 359.231 796.418 356.551 807.16 351.164C816.789 346.33 824.878 338.906 830.519 329.728C836.235 320.063 839.124 308.989 838.857 297.764V172.603H815.114ZM811.655 258.35C808.616 264.382 803.864 269.381 797.994 272.72C791.666 276.217 784.524 277.972 777.297 277.806C769.925 277.951 762.645 276.156 756.185 272.602C750.085 269.133 745.092 264.008 741.785 257.818C738.271 251.216 736.491 243.83 736.611 236.352C736.486 228.911 738.267 221.562 741.785 215.003C745.12 208.96 750.05 203.949 756.037 200.515C762.438 196.915 769.688 195.098 777.03 195.252C784.281 195.08 791.44 196.901 797.728 200.515C803.558 203.958 808.294 208.981 811.388 215.003C814.79 221.681 816.486 229.096 816.326 236.588C816.551 244.132 814.948 251.619 811.655 258.409V258.35Z" fill="#F0E9F4"/>
<defs>
<linearGradient id="paint0_linear_18_7" x1="254.534" y1="55.7206" x2="122.069" y2="191.054" gradientUnits="userSpaceOnUse">
<stop offset="0.26" stop-color="#F0E9F4"/>
<stop offset="0.29" stop-color="#F0E9F4" stop-opacity="0.89"/>
<stop offset="0.35" stop-color="#F0E9F4" stop-opacity="0.66"/>
<stop offset="0.42" stop-color="#F0E9F4" stop-opacity="0.46"/>
<stop offset="0.48" stop-color="#F0E9F4" stop-opacity="0.29"/>
<stop offset="0.55" stop-color="#F0E9F4" stop-opacity="0.16"/>
<stop offset="0.61" stop-color="#F0E9F4" stop-opacity="0.07"/>
<stop offset="0.66" stop-color="#F0E9F4" stop-opacity="0.02"/>
<stop offset="0.72" stop-color="#F0E9F4" stop-opacity="0"/>
</linearGradient>
</defs>
</svg>
